# Blender v2.78 (sub 0) OBJ File: '4.blend'
# www.blender.org
mtllib 4colid.mtl
o Cube.023
v 5.432114 0.707400 2.195655
v 5.432112 0.707399 0.761749
v 5.432113 2.141306 2.195655
v 5.432112 2.141305 0.761748
v 3.602470 0.707399 2.195656
v 3.602469 0.707399 0.761750
v 3.602470 2.141305 2.195656
v 3.602469 2.141305 0.761750
vn 1.0000 0.0000 -0.0000
vn -0.0000 1.0000 0.0000
vn -1.0000 0.0000 0.0000
vn 0.0000 -1.0000 0.0000
vn 0.0000 0.0000 1.0000
vn -0.0000 -0.0000 -1.0000
usemtl None
s off
f 1//1 2//1 4//1 3//1
f 3//2 4//2 8//2 7//2
f 7//3 8//3 6//3 5//3
f 5//4 6//4 2//4 1//4
f 3//5 7//5 5//5 1//5
f 8//6 4//6 2//6 6//6
o Cube.022
v 5.432114 2.186299 3.654484
v 5.432112 2.186298 2.220578
v 5.432113 3.620205 3.654484
v 5.432112 3.620204 2.220578
v 3.602470 2.186298 3.654485
v 3.602469 2.186298 2.220579
v 3.602470 3.620204 3.654485
v 3.602469 3.620204 2.220579
vn 1.0000 0.0000 -0.0000
vn -0.0000 1.0000 -0.0000
vn -1.0000 0.0000 0.0000
vn 0.0000 -1.0000 -0.0000
vn 0.0000 0.0000 1.0000
vn -0.0000 0.0000 -1.0000
usemtl None
s off
f 9//7 10//7 12//7 11//7
f 11//8 12//8 16//8 15//8
f 15//9 16//9 14//9 13//9
f 13//10 14//10 10//10 9//10
f 11//11 15//11 13//11 9//11
f 16//12 12//12 10//12 14//12
o Cube.021
v 0.737696 0.774438 3.542864
v -0.696210 0.774438 3.542865
v 0.737696 2.208344 3.542865
v -0.696210 2.208344 3.542865
v 0.737697 0.774438 5.372508
v -0.696209 0.774437 5.372508
v 0.737697 2.208344 5.372508
v -0.696210 2.208344 5.372509
vn -0.0000 0.0000 -1.0000
vn 0.0000 1.0000 0.0000
vn -0.0000 -0.0000 1.0000
vn 0.0000 -1.0000 -0.0000
vn 1.0000 0.0000 -0.0000
vn -1.0000 0.0000 0.0000
usemtl None
s off
f 17//13 18//13 20//13 19//13
f 19//14 20//14 24//14 23//14
f 23//15 24//15 22//15 21//15
f 21//16 22//16 18//16 17//16
f 19//17 23//17 21//17 17//17
f 24//18 20//18 18//18 22//18
o Cube.020
v 3.579254 -3.606323 3.542864
v 2.145348 -3.606323 3.542865
v 3.579254 -2.172416 3.542865
v 2.145348 -2.172417 3.542865
v 3.579255 -3.606323 5.372508
v 2.145349 -3.606323 5.372508
v 3.579255 -2.172417 5.372508
v 2.145349 -2.172417 5.372509
vn -0.0000 0.0000 -1.0000
vn -0.0000 1.0000 0.0000
vn 0.0000 -0.0000 1.0000
vn 0.0000 -1.0000 0.0000
vn 1.0000 0.0000 -0.0000
vn -1.0000 0.0000 0.0000
usemtl None
s off
f 25//19 26//19 28//19 27//19
f 27//20 28//20 32//20 31//20
f 31//21 32//21 30//21 29//21
f 29//22 30//22 26//22 25//22
f 27//23 31//23 29//23 25//23
f 32//24 28//24 26//24 30//24
o Cube.019
v 0.737696 -2.154595 3.542864
v -0.696210 -2.154595 3.542865
v 0.737696 -0.720689 3.542865
v -0.696210 -0.720689 3.542865
v 0.737697 -2.154595 5.372508
v -0.696209 -2.154595 5.372508
v 0.737697 -0.720689 5.372508
v -0.696210 -0.720689 5.372509
vn -0.0000 0.0000 -1.0000
vn -0.0000 1.0000 0.0000
vn -0.0000 -0.0000 1.0000
vn 0.0000 -1.0000 0.0000
vn 1.0000 0.0000 -0.0000
vn -1.0000 0.0000 0.0000
usemtl None
s off
f 33//25 34//25 36//25 35//25
f 35//26 36//26 40//26 39//26
f 39//27 40//27 38//27 37//27
f 37//28 38//28 34//28 33//28
f 35//29 39//29 37//29 33//29
f 40//30 36//30 34//30 38//30
o Cube.018
v 0.737696 -3.606323 3.542864
v -0.696210 -3.606323 3.542865
v 0.737696 -2.172416 3.542865
v -0.696210 -2.172417 3.542865
v 0.737697 -3.606323 5.372508
v -0.696209 -3.606323 5.372508
v 0.737697 -2.172417 5.372508
v -0.696210 -2.172417 5.372509
vn -0.0000 0.0000 -1.0000
vn -0.0000 1.0000 0.0000
vn 0.0000 -0.0000 1.0000
vn 0.0000 -1.0000 0.0000
vn 1.0000 0.0000 -0.0000
vn -1.0000 0.0000 0.0000
usemtl None
s off
f 41//31 42//31 44//31 43//31
f 43//32 44//32 48//32 47//32
f 47//33 48//33 46//33 45//33
f 45//34 46//34 42//34 41//34
f 43//35 47//35 45//35 41//35
f 48//36 44//36 42//36 46//36
o Cube.017
v -2.151713 -5.413077 3.574499
v -3.585619 -5.413076 3.574499
v -2.151713 -5.413077 2.140593
v -3.585619 -5.413076 2.140593
v -2.151712 -3.583433 3.574499
v -3.585618 -3.583433 3.574499
v -2.151712 -3.583433 2.140593
v -3.585618 -3.583433 2.140593
vn -0.0000 -1.0000 0.0000
vn -0.0000 0.0000 -1.0000
vn 0.0000 1.0000 0.0000
vn 0.0000 0.0000 1.0000
vn 1.0000 -0.0000 0.0000
vn -1.0000 0.0000 0.0000
usemtl None
s off
f 49//37 50//37 52//37 51//37
f 51//38 52//38 56//38 55//38
f 55//39 56//39 54//39 53//39
f 53//40 54//40 50//40 49//40
f 51//41 55//41 53//41 49//41
f 56//42 52//42 50//42 54//42
o Cube.016
v -2.151713 -5.413077 2.122771
v -3.585619 -5.413076 2.122771
v -2.151713 -5.413077 0.688865
v -3.585619 -5.413076 0.688865
v -2.151712 -3.583433 2.122771
v -3.585618 -3.583433 2.122771
v -2.151712 -3.583433 0.688865
v -3.585618 -3.583433 0.688865
vn -0.0000 -1.0000 0.0000
vn -0.0000 0.0000 -1.0000
vn 0.0000 1.0000 0.0000
vn 0.0000 0.0000 1.0000
vn 1.0000 -0.0000 0.0000
vn -1.0000 0.0000 0.0000
usemtl None
s off
f 57//43 58//43 60//43 59//43
f 59//44 60//44 64//44 63//44
f 63//45 64//45 62//45 61//45
f 61//46 62//46 58//46 57//46
f 59//47 63//47 61//47 57//47
f 64//48 60//48 58//48 62//48
o Cube.015
v 2.150522 -5.413077 -2.291568
v 0.716616 -5.413076 -2.291568
v 2.150522 -5.413077 -3.725474
v 0.716616 -5.413076 -3.725474
v 2.150523 -3.583433 -2.291568
v 0.716617 -3.583433 -2.291568
v 2.150523 -3.583433 -3.725474
v 0.716617 -3.583433 -3.725474
vn -0.0000 -1.0000 0.0000
vn -0.0000 0.0000 -1.0000
vn 0.0000 1.0000 0.0000
vn 0.0000 0.0000 1.0000
vn 1.0000 -0.0000 0.0000
vn -1.0000 0.0000 0.0000
usemtl None
s off
f 65//49 66//49 68//49 67//49
f 67//50 68//50 72//50 71//50
f 71//51 72//51 70//51 69//51
f 69//52 70//52 66//52 65//52
f 67//53 71//53 69//53 65//53
f 72//54 68//54 66//54 70//54
o Cube.014
v 2.150522 -5.413077 -0.839840
v 0.716616 -5.413076 -0.839840
v 2.150522 -5.413077 -2.273746
v 0.716616 -5.413076 -2.273746
v 2.150523 -3.583433 -0.839840
v 0.716617 -3.583433 -0.839840
v 2.150523 -3.583433 -2.273746
v 0.716617 -3.583433 -2.273746
vn -0.0000 -1.0000 0.0000
vn -0.0000 0.0000 -1.0000
vn 0.0000 1.0000 0.0000
vn 0.0000 0.0000 1.0000
vn 1.0000 -0.0000 0.0000
vn -1.0000 0.0000 0.0000
usemtl None
s off
f 73//55 74//55 76//55 75//55
f 75//56 76//56 80//56 79//56
f 79//57 80//57 78//57 77//57
f 77//58 78//58 74//58 73//58
f 75//59 79//59 77//59 73//59
f 80//60 76//60 74//60 78//60
o Cube.013
v -3.629892 -2.128614 -3.573860
v -3.629892 -3.562521 -3.573860
v -2.195986 -2.128614 -3.573860
v -2.195986 -3.562521 -3.573860
v -3.629892 -2.128615 -5.403504
v -3.629892 -3.562521 -5.403503
v -2.195986 -2.128615 -5.403503
v -2.195986 -3.562521 -5.403503
vn -0.0000 0.0000 1.0000
vn 1.0000 0.0000 0.0000
vn 0.0000 -0.0000 -1.0000
vn -1.0000 0.0000 -0.0000
vn 0.0000 1.0000 -0.0000
vn 0.0000 -1.0000 0.0000
usemtl None
s off
f 81//61 82//61 84//61 83//61
f 83//62 84//62 88//62 87//62
f 87//63 88//63 86//63 85//63
f 85//64 86//64 82//64 81//64
f 83//65 87//65 85//65 81//65
f 88//66 84//66 82//66 86//66
o Cube.012
v -2.178164 -2.128614 -3.573860
v -2.178164 -3.562521 -3.573860
v -0.744258 -2.128614 -3.573860
v -0.744258 -3.562521 -3.573860
v -2.178164 -2.128615 -5.403504
v -2.178164 -3.562521 -5.403503
v -0.744258 -2.128615 -5.403503
v -0.744258 -3.562521 -5.403503
vn -0.0000 0.0000 1.0000
vn 1.0000 0.0000 0.0000
vn 0.0000 -0.0000 -1.0000
vn -1.0000 -0.0000 -0.0000
vn 0.0000 1.0000 -0.0000
vn 0.0000 -1.0000 0.0000
usemtl None
s off
f 89//67 90//67 92//67 91//67
f 91//68 92//68 96//68 95//68
f 95//69 96//69 94//69 93//69
f 93//70 94//70 90//70 89//70
f 91//71 95//71 93//71 89//71
f 96//72 92//72 90//72 94//72
o Cube.011
v 2.150198 2.120288 -3.573860
v 3.584104 2.120289 -3.573860
v 2.150198 3.554194 -3.573860
v 3.584104 3.554195 -3.573860
v 2.150198 2.120289 -5.403504
v 3.584104 2.120289 -5.403503
v 2.150198 3.554195 -5.403503
v 3.584104 3.554195 -5.403503
vn -0.0000 -0.0000 1.0000
vn -0.0000 1.0000 0.0000
vn 0.0000 0.0000 -1.0000
vn 0.0000 -1.0000 -0.0000
vn -1.0000 0.0000 0.0000
vn 1.0000 0.0000 0.0000
usemtl None
s off
f 97//73 98//73 100//73 99//73
f 99//74 100//74 104//74 103//74
f 103//75 104//75 102//75 101//75
f 101//76 102//76 98//76 97//76
f 99//77 103//77 101//77 97//77
f 104//78 100//78 98//78 102//78
o Cube.010
v 2.150198 0.668561 -3.573860
v 3.584104 0.668561 -3.573860
v 2.150198 2.102467 -3.573860
v 3.584104 2.102467 -3.573860
v 2.150198 0.668561 -5.403504
v 3.584104 0.668561 -5.403503
v 2.150198 2.102467 -5.403503
v 3.584104 2.102468 -5.403503
vn -0.0000 -0.0000 1.0000
vn -0.0000 1.0000 0.0000
vn 0.0000 0.0000 -1.0000
vn 0.0000 -1.0000 -0.0000
vn -1.0000 0.0000 0.0000
vn 1.0000 0.0000 0.0000
usemtl None
s off
f 105//79 106//79 108//79 107//79
f 107//80 108//80 112//80 111//80
f 111//81 112//81 110//81 109//81
f 109//82 110//82 106//82 105//82
f 107//83 111//83 109//83 105//83
f 112//84 108//84 106//84 110//84
o Cube.009
v 0.612699 5.412982 2.128109
v 2.046605 5.412982 2.128109
v 0.612699 5.412982 0.694203
v 2.046605 5.412982 0.694203
v 0.612699 3.583338 2.128109
v 2.046605 3.583338 2.128109
v 0.612699 3.583338 0.694203
v 2.046605 3.583338 0.694203
vn 0.0000 1.0000 0.0000
vn 0.0000 0.0000 -1.0000
vn 0.0000 -1.0000 0.0000
vn 0.0000 0.0000 1.0000
vn -1.0000 -0.0000 0.0000
vn 1.0000 0.0000 0.0000
usemtl None
s off
f 113//85 114//85 116//85 115//85
f 115//86 116//86 120//86 119//86
f 119//87 120//87 118//87 117//87
f 117//88 118//88 114//88 113//88
f 115//89 119//89 117//89 113//89
f 120//90 116//90 114//90 118//90
o Cube.008
v 0.612699 5.412982 3.579837
v 2.046605 5.412982 3.579837
v 0.612699 5.412982 2.145931
v 2.046605 5.412982 2.145931
v 0.612699 3.583338 3.579837
v 2.046605 3.583338 3.579837
v 0.612699 3.583338 2.145931
v 2.046605 3.583338 2.145931
vn 0.0000 1.0000 0.0000
vn 0.0000 0.0000 -1.0000
vn 0.0000 -1.0000 0.0000
vn 0.0000 0.0000 1.0000
vn -1.0000 -0.0000 0.0000
vn 1.0000 0.0000 0.0000
usemtl None
s off
f 121//91 122//91 124//91 123//91
f 123//92 124//92 128//92 127//92
f 127//93 128//93 126//93 125//93
f 125//94 126//94 122//94 121//94
f 123//95 127//95 125//95 121//95
f 128//96 124//96 122//96 126//96
o Cube.007
v 2.150198 5.412982 -0.728606
v 3.584104 5.412982 -0.728606
v 2.150198 5.412982 -2.162512
v 3.584104 5.412982 -2.162512
v 2.150198 3.583338 -0.728606
v 3.584104 3.583338 -0.728606
v 2.150198 3.583338 -2.162512
v 3.584104 3.583338 -2.162512
vn 0.0000 1.0000 0.0000
vn 0.0000 0.0000 -1.0000
vn 0.0000 -1.0000 0.0000
vn 0.0000 0.0000 1.0000
vn -1.0000 0.0000 0.0000
vn 1.0000 0.0000 0.0000
usemtl None
s off
f 129//97 130//97 132//97 131//97
f 131//98 132//98 136//98 135//98
f 135//99 136//99 134//99 133//99
f 133//100 134//100 130//100 129//100
f 131//101 135//101 133//101 129//101
f 136//102 132//102 130//102 134//102
o Cube.006
v 2.150198 5.412982 -2.180333
v 3.584104 5.412982 -2.180333
v 2.150198 5.412982 -3.614239
v 3.584104 5.412982 -3.614239
v 2.150198 3.583338 -2.180333
v 3.584104 3.583338 -2.180333
v 2.150198 3.583338 -3.614239
v 3.584104 3.583338 -3.614239
vn 0.0000 1.0000 0.0000
vn 0.0000 0.0000 -1.0000
vn 0.0000 -1.0000 0.0000
vn 0.0000 0.0000 1.0000
vn -1.0000 0.0000 0.0000
vn 1.0000 0.0000 0.0000
usemtl None
s off
f 137//103 138//103 140//103 139//103
f 139//104 140//104 144//104 143//104
f 143//105 144//105 142//105 141//105
f 141//106 142//106 138//106 137//106
f 139//107 143//107 141//107 137//107
f 144//108 140//108 138//108 142//108
o Cube.005
v -3.612005 5.412982 -2.151689
v -2.178099 5.412982 -2.151689
v -3.612005 5.412982 -3.585595
v -2.178099 5.412982 -3.585595
v -3.612005 3.583338 -2.151689
v -2.178099 3.583338 -2.151689
v -3.612005 3.583338 -3.585595
v -2.178099 3.583338 -3.585595
vn 0.0000 1.0000 0.0000
vn 0.0000 0.0000 -1.0000
vn 0.0000 -1.0000 0.0000
vn 0.0000 0.0000 1.0000
vn -1.0000 0.0000 0.0000
vn 1.0000 0.0000 0.0000
usemtl None
s off
f 145//109 146//109 148//109 147//109
f 147//110 148//110 152//110 151//110
f 151//111 152//111 150//111 149//111
f 149//112 150//112 146//112 145//112
f 147//113 151//113 149//113 145//113
f 152//114 148//114 146//114 150//114
o Cube.004
v -3.612005 5.412982 -0.699962
v -2.178099 5.412982 -0.699962
v -3.612005 5.412982 -2.133868
v -2.178099 5.412982 -2.133868
v -3.612005 3.583338 -0.699962
v -2.178099 3.583338 -0.699962
v -3.612005 3.583338 -2.133868
v -2.178099 3.583338 -2.133868
vn 0.0000 1.0000 0.0000
vn 0.0000 0.0000 -1.0000
vn 0.0000 -1.0000 0.0000
vn 0.0000 0.0000 1.0000
vn -1.0000 0.0000 0.0000
vn 1.0000 0.0000 0.0000
usemtl None
s off
f 153//115 154//115 156//115 155//115
f 155//116 156//116 160//116 159//116
f 159//117 160//117 158//117 157//117
f 157//118 158//118 154//118 153//118
f 155//119 159//119 157//119 153//119
f 160//120 156//120 154//120 158//120
o Cube.003
v -5.405136 2.112345 -0.749861
v -5.405136 3.546251 -0.749861
v -5.405136 2.112345 -2.183767
v -5.405136 3.546251 -2.183767
v -3.575493 2.112345 -0.749861
v -3.575493 3.546251 -0.749861
v -3.575493 2.112345 -2.183767
v -3.575493 3.546251 -2.183767
vn -1.0000 0.0000 0.0000
vn 0.0000 0.0000 -1.0000
vn 1.0000 0.0000 0.0000
vn 0.0000 0.0000 1.0000
vn 0.0000 -1.0000 0.0000
vn 0.0000 1.0000 0.0000
usemtl None
s off
f 161//121 162//121 164//121 163//121
f 163//122 164//122 168//122 167//122
f 167//123 168//123 166//123 165//123
f 165//124 166//124 162//124 161//124
f 163//125 167//125 165//125 161//125
f 168//126 164//126 162//126 166//126
o Cube.002
v -5.405136 2.112345 -2.201589
v -5.405136 3.546251 -2.201589
v -5.405136 2.112345 -3.635495
v -5.405136 3.546251 -3.635495
v -3.575493 2.112345 -2.201589
v -3.575493 3.546251 -2.201589
v -3.575493 2.112345 -3.635495
v -3.575493 3.546251 -3.635495
vn -1.0000 0.0000 0.0000
vn 0.0000 0.0000 -1.0000
vn 1.0000 0.0000 0.0000
vn 0.0000 0.0000 1.0000
vn 0.0000 -1.0000 0.0000
vn 0.0000 1.0000 0.0000
usemtl None
s off
f 169//127 170//127 172//127 171//127
f 171//128 172//128 176//128 175//128
f 175//129 176//129 174//129 173//129
f 173//130 174//130 170//130 169//130
f 171//131 175//131 173//131 169//131
f 176//132 172//132 170//132 174//132
o Cube.001
v -5.405136 -3.582268 2.138725
v -5.405136 -2.148362 2.138725
v -5.405136 -3.582268 0.704819
v -5.405136 -2.148362 0.704819
v -3.575493 -3.582268 2.138725
v -3.575493 -2.148362 2.138725
v -3.575493 -3.582268 0.704819
v -3.575493 -2.148362 0.704819
vn -1.0000 0.0000 0.0000
vn 0.0000 0.0000 -1.0000
vn 1.0000 0.0000 0.0000
vn 0.0000 0.0000 1.0000
vn 0.0000 -1.0000 0.0000
vn 0.0000 1.0000 0.0000
usemtl None
s off
f 177//133 178//133 180//133 179//133
f 179//134 180//134 184//134 183//134
f 183//135 184//135 182//135 181//135
f 181//136 182//136 178//136 177//136
f 179//137 183//137 181//137 177//137
f 184//138 180//138 178//138 182//138
o Cube
v -5.405136 -2.142053 2.138725
v -5.405136 -0.708147 2.138725
v -5.405136 -2.142053 0.704819
v -5.405136 -0.708147 0.704819
v -3.575493 -2.142053 2.138725
v -3.575493 -0.708147 2.138725
v -3.575493 -2.142053 0.704819
v -3.575493 -0.708147 0.704819
vn -1.0000 0.0000 0.0000
vn 0.0000 0.0000 -1.0000
vn 1.0000 0.0000 0.0000
vn 0.0000 0.0000 1.0000
vn 0.0000 -1.0000 0.0000
vn 0.0000 1.0000 0.0000
usemtl None
s off
f 185//139 186//139 188//139 187//139
f 187//140 188//140 192//140 191//140
f 191//141 192//141 190//141 189//141
f 189//142 190//142 186//142 185//142
f 187//143 191//143 189//143 185//143
f 192//144 188//144 186//144 190//144
